<svg width="57" height="64" viewBox="0 0 57 64" fill="none" xmlns="http://www.w3.org/2000/svg">
<path d="M38.2028 2.75H39.4778V0.527884L37.5594 1.64926L38.2028 2.75ZM35.4766 28.7451H36.7516V28.1544L36.3009 27.7725L35.4766 28.7451ZM35.4766 62.25H34.2016V63.525H35.4766V62.25ZM47.7442 62.25V63.525H49.0192V62.25H47.7442ZM44.3364 2.75L45.0094 1.66713L43.0614 0.45631V2.75H44.3364ZM37.5594 1.64926C34.1288 3.65454 29.7508 7.46944 28.0507 12.4471C27.1884 14.972 27.0209 17.7877 28.0165 20.7563C29.0071 23.7098 31.1172 26.7216 34.6522 29.7178L36.3009 27.7725C33.0203 24.992 31.2398 22.3475 30.4342 19.9454C29.6336 17.5585 29.7643 15.3196 30.4639 13.2713C31.8876 9.10256 35.6884 5.69659 38.8462 3.85074L37.5594 1.64926ZM34.2016 28.7451V62.25H36.7516V28.7451H34.2016ZM35.4766 63.525H47.7442V60.975H35.4766V63.525ZM49.0192 62.25V32.2112H46.4692V62.25H49.0192ZM36.9278 2.75V14.125H39.4778V2.75H36.9278ZM45.6114 14.125V2.75H43.0614V14.125H45.6114ZM43.6633 3.83287C46.955 5.8788 51.0352 9.54045 52.8013 13.8352C53.6715 15.9513 53.968 18.1872 53.3765 20.4759C52.7839 22.7688 51.2668 25.2435 48.2829 27.7725L49.9317 29.7178C53.2182 26.9323 55.0918 24.0298 55.8454 21.114C56.6 18.194 56.1978 15.3898 55.1597 12.8653C53.109 7.8788 48.5334 3.85745 45.0094 1.66713L43.6633 3.83287ZM41.2696 18.4667C43.6675 18.4667 45.6114 16.5229 45.6114 14.125H43.0614C43.0614 15.1145 42.2592 15.9167 41.2696 15.9167V18.4667ZM36.9278 14.125C36.9278 16.5229 38.8717 18.4667 41.2696 18.4667V15.9167C40.28 15.9167 39.4778 15.1145 39.4778 14.125H36.9278Z" fill="#666666"/>
<path opacity="0.5" d="M9.06104 31.6502V17.2002" stroke="#666666" stroke-width="2.55"/>
<path d="M15.7953 34.2H4.02603L1.41064 62.25H18.4106L15.7953 34.2Z" stroke="#666666" stroke-width="2.55"/>
<path d="M6.83796 17.2002L12.1341 17.2002L13.311 7.8502L5.66104 7.8502L6.83796 17.2002Z" stroke="#666666" stroke-width="2.55"/>
</svg>
