<svg width="47" height="72" viewBox="0 0 47 72" fill="none" xmlns="http://www.w3.org/2000/svg">
<path d="M8.76471 29.4119H44.6176V1.67664H2V38.8825H17.5588L14.8529 70.0002H32.4412L28.3824 38.8825H44.6176V34.8237" stroke="#666666" stroke-width="3"/>
<mask id="path-2-inside-1_3_803" fill="white">
<path d="M20.2656 0.999756L20.2656 9.79387C20.2656 13.1563 17.5398 15.8821 14.1774 15.8821C10.8149 15.8821 8.08915 13.1563 8.08915 9.79387L8.08916 0.999755L20.2656 0.999756Z"/>
</mask>
<path d="M20.2656 0.999756L22.9715 0.999756L22.9715 -1.70613L20.2656 -1.70613L20.2656 0.999756ZM8.08916 0.999755L8.08916 -1.70613L5.38327 -1.70613L5.38327 0.999755L8.08916 0.999755ZM17.5597 0.999756L17.5597 9.79387L22.9715 9.79387L22.9715 0.999756L17.5597 0.999756ZM10.795 9.79387L10.795 0.999755L5.38327 0.999755L5.38327 9.79387L10.795 9.79387ZM8.08916 3.70564L20.2656 3.70564L20.2656 -1.70613L8.08916 -1.70613L8.08916 3.70564ZM14.1774 13.1762C12.3094 13.1762 10.795 11.6619 10.795 9.79387L5.38327 9.79387C5.38327 14.6507 9.32053 18.588 14.1774 18.588L14.1774 13.1762ZM17.5597 9.79387C17.5597 11.6619 16.0454 13.1762 14.1774 13.1762L14.1774 18.588C19.0342 18.588 22.9715 14.6507 22.9715 9.79387L17.5597 9.79387Z" fill="#666666" mask="url(#path-2-inside-1_3_803)"/>
<mask id="path-4-inside-2_3_803" fill="white">
<path d="M31.0879 0.999756L31.0879 15.2056C31.0879 18.5681 28.3621 21.2939 24.9997 21.2939C21.6372 21.2939 18.9114 18.5681 18.9114 15.2056L18.9114 0.999755L31.0879 0.999756Z"/>
</mask>
<path d="M31.0879 0.999756L33.7938 0.999756L33.7938 -1.70613L31.0879 -1.70613L31.0879 0.999756ZM18.9114 0.999755L18.9114 -1.70613L16.2055 -1.70613L16.2055 0.999755L18.9114 0.999755ZM28.382 0.999756L28.382 15.2056L33.7938 15.2056L33.7938 0.999756L28.382 0.999756ZM21.6173 15.2056L21.6173 0.999755L16.2055 0.999755L16.2055 15.2056L21.6173 15.2056ZM18.9114 3.70564L31.0879 3.70564L31.0879 -1.70613L18.9114 -1.70613L18.9114 3.70564ZM24.9997 18.588C23.1316 18.588 21.6173 17.0737 21.6173 15.2056L16.2055 15.2056C16.2055 20.0625 20.1428 23.9998 24.9997 23.9998L24.9997 18.588ZM28.382 15.2056C28.382 17.0737 26.8677 18.588 24.9997 18.588L24.9997 23.9998C29.8565 23.9998 33.7938 20.0625 33.7938 15.2056L28.382 15.2056Z" fill="#666666" mask="url(#path-4-inside-2_3_803)"/>
</svg>
